<?xml version="1.0" encoding="UTF-8"?>
<!DOCTYPE svg PUBLIC "-//W3C//DTD SVG 1.1//EN" "http://www.w3.org/Graphics/SVG/1.1/DTD/svg11.dtd">
<svg xmlns="http://www.w3.org/2000/svg" version="1.1" width="281px" height="266px" style="shape-rendering:geometricPrecision; text-rendering:geometricPrecision; image-rendering:optimizeQuality; fill-rule:evenodd; clip-rule:evenodd" xmlns:xlink="http://www.w3.org/1999/xlink">
<g><path style="opacity:1" fill="#fdfdfd" d="M -0.5,-0.5 C 93.1667,-0.5 186.833,-0.5 280.5,-0.5C 280.5,88.1667 280.5,176.833 280.5,265.5C 216.167,265.5 151.833,265.5 87.5,265.5C 88.7358,263.957 90.4024,262.957 92.5,262.5C 98.083,256.417 104.416,251.251 111.5,247C 114.876,243.658 118.209,240.325 121.5,237C 122.833,236.667 124.167,236.333 125.5,236C 133.333,228.5 141.167,221 149,213.5C 149.483,212.552 149.649,211.552 149.5,210.5C 154.686,209.456 158.186,206.456 160,201.5C 165.456,197.706 169.456,192.706 172,186.5C 174,183.167 176.667,180.5 180,178.5C 182.587,175.587 184.754,172.42 186.5,169C 188.37,167.634 190.37,166.467 192.5,165.5C 195.288,166.978 198.122,168.311 201,169.5C 202.333,167.5 203.667,165.5 205,163.5C 202.767,146.923 208.267,133.589 221.5,123.5C 223.568,117.462 225.735,111.462 228,105.5C 232.698,99.3753 237.032,93.042 241,86.5C 245.169,77.5084 250.336,69.1751 256.5,61.5C 257.833,59.8333 257.833,58.1667 256.5,56.5C 252.847,51.3504 248.847,46.517 244.5,42C 241.022,40.7557 237.522,39.5891 234,38.5C 228.499,41.1524 223.666,44.8191 219.5,49.5C 208.511,51.411 198.345,55.411 189,61.5C 187.266,60.5335 186.432,59.0335 186.5,57C 187.015,53.9522 188.015,51.1188 189.5,48.5C 187.016,43.1176 183.349,38.6176 178.5,35C 171.784,34.3132 165.117,33.6466 158.5,33C 160.7,38.771 160.867,44.6043 159,50.5C 152.374,61.7614 147.374,73.7614 144,86.5C 137.077,98.0776 129.41,109.078 121,119.5C 119.327,124.363 118.494,129.363 118.5,134.5C 119.5,134.5 120.5,134.5 121.5,134.5C 121.343,135.873 121.51,137.207 122,138.5C 123.033,135.967 124.867,134.301 127.5,133.5C 128.523,129.978 130.857,127.811 134.5,127C 136.655,122.888 139.822,119.721 144,117.5C 146.623,113.209 149.956,109.543 154,106.5C 161.747,94.1753 170.581,82.6753 180.5,72C 181.448,71.5172 182.448,71.3505 183.5,71.5C 181.371,75.7193 182.705,78.0527 187.5,78.5C 194.425,76.2484 201.425,74.0817 208.5,72C 212.187,69.6357 215.854,67.3024 219.5,65C 222.868,63.7948 225.202,64.7948 226.5,68C 224.277,72.7057 222.277,77.539 220.5,82.5C 217.15,84.4938 215.65,87.4938 216,91.5C 214.933,92.1905 213.766,92.6905 212.5,93C 212.833,93.3333 213.167,93.6667 213.5,94C 209.223,99.7805 206.223,106.281 204.5,113.5C 199.217,119.943 194.55,126.776 190.5,134C 186.373,134.439 183.039,132.939 180.5,129.5C 171.278,125.297 161.612,123.463 151.5,124C 155.479,129.458 158.813,135.292 161.5,141.5C 165.21,143.593 168.377,146.26 171,149.5C 171.66,158.478 168.327,165.478 161,170.5C 159.984,173.568 158.817,176.568 157.5,179.5C 148.227,188.074 140.393,197.741 134,208.5C 131.828,209.585 129.828,210.919 128,212.5C 121.163,222.176 114.33,231.843 107.5,241.5C 101.139,245.184 95.8057,250.017 91.5,256C 87.314,257.864 84.6473,261.03 83.5,265.5C 55.5,265.5 27.5,265.5 -0.5,265.5C -0.5,176.833 -0.5,88.1667 -0.5,-0.5 Z"/></g>
<g><path style="opacity:1" fill="#0a0a0a" d="M 70.5,20.5 C 74.3789,20.9766 78.0455,22.1432 81.5,24C 87.2956,28.1279 92.4623,32.9612 97,38.5C 98.4924,43.4107 98.8257,48.4107 98,53.5C 94.3556,56.6213 90.1889,57.288 85.5,55.5C 84.5,54.1667 83.5,52.8333 82.5,51.5C 76.7548,50.0858 73.4215,46.4191 72.5,40.5C 69.1757,38.1793 65.8424,35.846 62.5,33.5C 60.3249,29.6344 59.9915,25.6344 61.5,21.5C 64.7131,21.81 67.7131,21.4767 70.5,20.5 Z"/></g>
<g><path style="opacity:1" fill="#060606" d="M 87.5,265.5 C 86.1667,265.5 84.8333,265.5 83.5,265.5C 84.6473,261.03 87.314,257.864 91.5,256C 95.8057,250.017 101.139,245.184 107.5,241.5C 114.33,231.843 121.163,222.176 128,212.5C 129.828,210.919 131.828,209.585 134,208.5C 140.393,197.741 148.227,188.074 157.5,179.5C 158.817,176.568 159.984,173.568 161,170.5C 168.327,165.478 171.66,158.478 171,149.5C 168.377,146.26 165.21,143.593 161.5,141.5C 158.813,135.292 155.479,129.458 151.5,124C 161.612,123.463 171.278,125.297 180.5,129.5C 183.039,132.939 186.373,134.439 190.5,134C 194.55,126.776 199.217,119.943 204.5,113.5C 206.223,106.281 209.223,99.7805 213.5,94C 213.167,93.6667 212.833,93.3333 212.5,93C 213.766,92.6905 214.933,92.1905 216,91.5C 215.65,87.4938 217.15,84.4938 220.5,82.5C 222.277,77.539 224.277,72.7057 226.5,68C 225.202,64.7948 222.868,63.7948 219.5,65C 215.854,67.3024 212.187,69.6357 208.5,72C 201.425,74.0817 194.425,76.2484 187.5,78.5C 182.705,78.0527 181.371,75.7193 183.5,71.5C 182.448,71.3505 181.448,71.5172 180.5,72C 170.581,82.6753 161.747,94.1753 154,106.5C 149.956,109.543 146.623,113.209 144,117.5C 139.822,119.721 136.655,122.888 134.5,127C 130.857,127.811 128.523,129.978 127.5,133.5C 124.867,134.301 123.033,135.967 122,138.5C 121.51,137.207 121.343,135.873 121.5,134.5C 120.5,134.5 119.5,134.5 118.5,134.5C 118.494,129.363 119.327,124.363 121,119.5C 129.41,109.078 137.077,98.0776 144,86.5C 147.374,73.7614 152.374,61.7614 159,50.5C 160.867,44.6043 160.7,38.771 158.5,33C 165.117,33.6466 171.784,34.3132 178.5,35C 183.349,38.6176 187.016,43.1176 189.5,48.5C 188.015,51.1188 187.015,53.9522 186.5,57C 186.432,59.0335 187.266,60.5335 189,61.5C 198.345,55.411 208.511,51.411 219.5,49.5C 223.666,44.8191 228.499,41.1524 234,38.5C 237.522,39.5891 241.022,40.7557 244.5,42C 248.847,46.517 252.847,51.3504 256.5,56.5C 257.833,58.1667 257.833,59.8333 256.5,61.5C 250.336,69.1751 245.169,77.5084 241,86.5C 237.032,93.042 232.698,99.3753 228,105.5C 225.735,111.462 223.568,117.462 221.5,123.5C 208.267,133.589 202.767,146.923 205,163.5C 203.667,165.5 202.333,167.5 201,169.5C 198.122,168.311 195.288,166.978 192.5,165.5C 190.37,166.467 188.37,167.634 186.5,169C 184.754,172.42 182.587,175.587 180,178.5C 176.667,180.5 174,183.167 172,186.5C 169.456,192.706 165.456,197.706 160,201.5C 158.186,206.456 154.686,209.456 149.5,210.5C 149.649,211.552 149.483,212.552 149,213.5C 141.167,221 133.333,228.5 125.5,236C 124.167,236.333 122.833,236.667 121.5,237C 118.209,240.325 114.876,243.658 111.5,247C 104.416,251.251 98.083,256.417 92.5,262.5C 90.4024,262.957 88.7358,263.957 87.5,265.5 Z"/></g>
<g><path style="opacity:1" fill="#050505" d="M 21.5,101.5 C 24.1226,103.265 27.1226,103.932 30.5,103.5C 39.9817,107.663 48.1484,113.663 55,121.5C 56.4114,123.65 57.2447,125.984 57.5,128.5C 56.448,128.351 55.448,128.517 54.5,129C 52.2649,132.072 49.5982,134.572 46.5,136.5C 43.1667,136.5 39.8333,136.5 36.5,136.5C 36.7373,135.209 36.404,134.209 35.5,133.5C 33.8143,131.984 31.981,130.65 30,129.5C 29.0546,129.905 28.3879,130.572 28,131.5C 26.4055,128.879 24.9055,126.213 23.5,123.5C 17.9374,120.884 12.2708,118.551 6.5,116.5C 3.63071,114.105 2.46405,111.105 3,107.5C 5.98398,106.736 8.48398,105.236 10.5,103C 13.9288,100.479 17.5955,99.9788 21.5,101.5 Z"/></g>
<g><path style="opacity:1" fill="#585858" d="M 21.5,101.5 C 24.6888,101.858 27.6888,102.525 30.5,103.5C 27.1226,103.932 24.1226,103.265 21.5,101.5 Z"/></g>
<g><path style="opacity:1" fill="#707070" d="M 35.5,133.5 C 36.404,134.209 36.7373,135.209 36.5,136.5C 39.8333,136.5 43.1667,136.5 46.5,136.5C 43.0381,137.482 39.3714,137.815 35.5,137.5C 35.5,136.167 35.5,134.833 35.5,133.5 Z"/></g>
<g><path style="opacity:1" fill="#090909" d="M 67.5,190.5 C 70.2436,191.072 71.0769,192.738 70,195.5C 67.3333,198.833 64.6667,202.167 62,205.5C 59.9937,210.843 57.9937,216.177 56,221.5C 54.4977,224.018 52.9977,226.518 51.5,229C 54.3508,232.22 57.5175,235.053 61,237.5C 64.2336,253.768 58.0669,259.101 42.5,253.5C 34.2591,248.088 27.9258,240.921 23.5,232C 26.5371,227.097 28.8704,221.93 30.5,216.5C 36.2208,217.194 41.2208,215.694 45.5,212C 46.9437,210.237 47.9437,208.237 48.5,206C 51.9974,203.417 55.6641,201.084 59.5,199C 61.6952,195.641 64.3619,192.807 67.5,190.5 Z"/></g>
</svg>
